<?xml version="1.0" standalone="no"?>
<!DOCTYPE svg PUBLIC "-//W3C//DTD SVG 20010904//EN"
 "http://www.w3.org/TR/2001/REC-SVG-20010904/DTD/svg10.dtd">
<svg version="1.0" xmlns="http://www.w3.org/2000/svg"
 width="600.000000pt" height="600.000000pt" viewBox="0 0 600.000000 600.000000"
 preserveAspectRatio="xMidYMid meet">

<g transform="translate(0.000000,600.000000) scale(0.100000,-0.100000)"
fill="#000000" stroke="none">
<path d="M3422 5448 c-76 -104 -260 -454 -414 -788 -146 -315 -259 -574 -323
-740 -43 -111 -94 -200 -165 -288 -27 -34 -50 -65 -50 -68 0 -4 33 -4 73 0
194 17 423 116 552 238 l71 67 37 128 c86 293 234 713 307 870 42 89 66 111
103 92 64 -35 247 -226 466 -489 30 -36 75 -85 101 -110 104 -100 160 -174
203 -264 44 -92 97 -152 177 -199 28 -17 31 -17 36 -2 4 9 0 42 -9 73 -16 58
-14 82 5 47 6 -11 40 -49 77 -84 36 -35 74 -76 83 -90 34 -50 18 -53 -36 -7
-30 25 -59 46 -64 46 -25 0 -30 -187 -8 -302 8 -40 37 -138 64 -218 62 -179
65 -197 66 -340 1 -180 29 -203 201 -160 112 28 194 81 240 154 26 43 30 59
30 120 0 62 -4 76 -30 116 -17 25 -67 72 -115 107 -207 153 -233 192 -284 425
-3 14 -18 40 -32 57 l-26 31 24 -2 c20 -3 23 2 26 33 4 47 -30 132 -76 189
-20 25 -73 82 -118 127 -79 79 -109 115 -344 414 -210 268 -503 610 -639 747
-68 68 -138 122 -160 122 -6 0 -28 -24 -49 -52z"/>
<path d="M3580 4318 c-59 -31 -83 -66 -83 -123 0 -30 -5 -45 -13 -45 -7 0 -39
-10 -71 -21 -81 -31 -146 -98 -163 -169 -25 -105 3 -248 70 -354 33 -51 35
-62 9 -43 -36 27 -88 123 -110 202 l-23 83 -45 -50 c-54 -60 -129 -112 -241
-166 -164 -79 -299 -112 -464 -112 -240 0 -487 -152 -541 -332 -52 -177 -7
-372 105 -454 56 -41 189 -99 278 -122 l67 -17 -42 -3 c-50 -4 -196 35 -276
73 -32 15 -60 25 -63 22 -3 -3 0 -60 6 -128 11 -122 55 -334 85 -405 l15 -36
37 27 c117 86 429 438 547 616 21 31 61 119 90 195 29 77 65 166 80 198 15 33
25 65 22 71 -2 6 -37 25 -77 42 -211 89 -277 129 -309 187 -21 41 -4 42 38 4
59 -54 245 -151 349 -182 18 -6 37 6 101 66 113 106 165 131 277 136 115 4
140 -9 218 -112 102 -135 239 -211 403 -225 l78 -6 13 -50 c16 -57 29 -409 15
-385 -23 38 -44 173 -40 251 3 44 1 82 -3 84 -10 7 -29 -111 -29 -187 0 -89
15 -162 49 -233 15 -34 34 -85 41 -114 10 -41 24 -65 60 -102 47 -50 78 -65
65 -31 -19 48 -24 145 -14 266 21 245 -4 463 -58 503 -20 15 -24 12 61 54 38
19 93 56 122 82 64 58 132 163 151 232 23 86 43 198 43 245 0 63 -25 161 -56
221 -48 96 -197 221 -350 295 -118 56 -188 74 -294 74 -69 0 -94 -4 -130 -22z"/>
<path d="M3211 3439 c-69 -13 -125 -45 -199 -114 -81 -75 -131 -163 -188 -327
-54 -158 -96 -235 -186 -350 -203 -258 -446 -505 -587 -596 -198 -127 -328
-248 -525 -487 -274 -332 -602 -612 -817 -699 -55 -22 -160 -49 -290 -76 -112
-22 -227 -48 -256 -56 -72 -20 -157 -66 -161 -86 -3 -17 9 -18 140 -18 79 0
184 5 233 10 50 5 122 12 160 15 125 11 248 35 368 72 l119 36 126 -16 c70 -9
174 -21 232 -27 58 -6 112 -13 120 -15 8 -2 141 -11 295 -19 295 -16 2255 -33
2242 -19 -4 3 -56 12 -117 20 -179 21 -261 64 -353 182 -49 64 -51 65 -192 78
-74 6 -77 8 -40 14 67 13 209 10 227 -4 8 -6 25 -28 38 -47 52 -78 113 -128
192 -156 49 -17 257 -50 403 -63 245 -23 542 -34 945 -35 581 -1 659 10 725
103 23 33 30 55 33 106 9 142 -27 257 -185 582 -58 120 -134 281 -170 358 -36
77 -66 141 -68 143 -1 2 -29 -13 -62 -32 -90 -53 -195 -84 -306 -92 -82 -6
-97 -10 -97 -24 0 -25 80 -266 135 -405 83 -214 140 -318 201 -374 30 -27 54
-52 54 -55 0 -16 -52 -3 -86 23 -51 36 -85 77 -133 159 -49 82 -75 98 -241
146 -202 57 -644 151 -878 186 -68 10 -129 24 -137 30 -8 6 -28 36 -45 67 -99
175 -324 314 -569 352 -74 12 -64 18 -138 -94 -172 -264 -437 -483 -647 -536
-25 -6 -46 -13 -46 -16 0 -10 61 -92 104 -140 115 -127 205 -169 398 -182 72
-5 133 -12 136 -15 3 -3 -60 -6 -139 -6 -174 0 -416 21 -559 49 -134 27 -156
26 -195 -3 -49 -38 -106 -156 -113 -232 -5 -65 -17 -79 -42 -49 -32 38 37 213
110 279 23 21 40 39 38 41 -2 2 -58 22 -123 44 -66 22 -178 61 -250 86 -169
60 -175 60 -335 -40 -203 -127 -314 -184 -328 -171 -2 3 36 31 84 62 357 229
603 403 784 553 41 35 178 160 303 279 126 120 281 264 345 321 168 149 446
432 524 531 87 112 133 192 170 298 28 78 32 99 32 207 1 109 -1 125 -24 170
-34 69 -95 93 -189 74z"/>
<path d="M5032 2843 c-56 -29 -73 -33 -143 -33 -43 0 -79 -2 -79 -6 0 -63 158
-861 184 -929 8 -22 99 -20 201 5 84 20 251 85 260 101 3 4 -5 34 -19 66 -13
32 -38 90 -54 128 -126 296 -240 571 -261 630 l-26 71 -63 -33z"/>
<path d="M2965 2363 c-16 -14 -120 -112 -230 -217 -110 -106 -264 -252 -343
-326 -129 -120 -143 -136 -137 -159 10 -41 91 -200 133 -261 37 -54 38 -55 82
-52 52 3 198 69 292 133 79 54 243 212 316 304 30 39 75 91 100 117 25 26 44
49 41 51 -2 2 -29 22 -59 44 -79 58 -115 100 -145 166 -24 51 -27 68 -24 143
2 46 4 84 4 84 0 0 -13 -12 -30 -27z"/>
<path d="M980 1454 c-19 -3 -87 -11 -150 -19 -141 -18 -200 -33 -312 -80 -120
-50 -188 -117 -218 -211 -24 -79 -25 -116 -4 -177 22 -64 65 -104 128 -117 43
-9 64 -7 131 10 199 51 368 162 668 438 115 106 144 138 133 144 -17 10 -320
19 -376 12z"/>
</g>
</svg>
